# xmcd
#
# Track frame offsets:
#	150
#	19907
#	41865
#	62185
#	83490
#	106042
#	131345
#	151357
#	155932
#	178620
#	182062
#	200655
#	206742
#	225420
#
# Disc length: 3149 seconds
#
# Revision: 0
# Processed by: cddbd v1.5.1PL2 Copyright (c) Steve Scherf et al.
# Submitted via: audiograbber 1.82.02
#
DISCID=bb0c4b0e
DTITLE=Kaos - Doin Time On Earth
DYEAR=1994
DGENRE=Rap
TTITLE0=Intro "Definition Of Kaos"
TTITLE1=Break It Down
TTITLE2=Why You Treat Me So Bad?
TTITLE3=If And When
TTITLE4=Good Life
TTITLE5=Life Of Crime
TTITLE6=Freestyle
TTITLE7=Lost In Thought (Interlude)
TTITLE8=Hit Em High Hit Em Low
TTITLE9=Buttie Shake
TTITLE10=Here I Am
TTITLE11=Sychotic Moment (Interlude)
TTITLE12=Weekend Fling
TTITLE13=Doin Time On Earth
EXTD=Cashflow420.com
EXTT0=
EXTT1=
EXTT2=
EXTT3=
EXTT4=
EXTT5=
EXTT6=
EXTT7=
EXTT8=
EXTT9=
EXTT10=
EXTT11=
EXTT12=
EXTT13=
PLAYORDER=
